<?xml version="1.0" encoding="UTF-8"?>
<svg width="200px" height="25px" viewBox="0 0 200 25" version="1.1" xmlns="http://www.w3.org/2000/svg" xmlns:xlink="http://www.w3.org/1999/xlink">
    <!-- Generator: Sketch 52.6 (67491) - http://www.bohemiancoding.com/sketch -->
    <title>Atlassian-horizontal-blue-rgb</title>
    <desc>Created with Sketch.</desc>
    <g id="Page-1" stroke="none" stroke-width="1" fill="none" fill-rule="evenodd">
        <g id="Atlassian-horizontal-blue-rgb" fill="#FFFFFF">
            <path d="M7.62322097,11.4393382 C7.4755441,11.2496451 7.2376087,11.1495104 6.99581922,11.1752973 C6.75402974,11.2010843 6.54355373,11.3490421 6.44082397,11.5654412 L0.449438202,23.3242647 C0.338463289,23.5421576 0.350326032,23.8009179 0.480790388,24.0081453 C0.611254744,24.2153728 0.841719183,24.3415211 1.08988764,24.3415441 L9.43258427,24.3415441 C9.70557957,24.3477656 9.95664925,24.1954251 10.0730337,23.9529412 C11.8726592,20.3025735 10.7820225,14.7522059 7.62322097,11.4393382 Z" id="Path"></path>
            <path d="M12.017603,0.744117647 C8.98048249,5.3313701 8.62995254,11.1499644 11.0951311,16.0566176 L15.1172285,23.9529412 C15.2385146,24.1910796 15.4864509,24.3415189 15.7576779,24.3415441 L24.0988764,24.3415441 C24.3470449,24.3415211 24.5775093,24.2153728 24.7079737,24.0081453 C24.838438,23.8009179 24.8503008,23.5421576 24.7393258,23.3242647 C24.7393258,23.3242647 13.517603,1.29080882 13.2355805,0.739705882 C13.1218,0.510799302 12.884651,0.365957629 12.625182,0.366897479 C12.365713,0.367837329 12.1296594,0.514393039 12.017603,0.744117647 Z" id="Path"></path>
            <path d="M109.855431,10.1724265 C109.855431,13.0841912 111.231461,15.3959559 116.613858,16.4165441 C119.825094,17.0783088 120.497753,17.5871324 120.497753,18.6378676 C120.497753,19.6584559 119.823596,20.3191176 117.561798,20.3191176 C114.82813,20.2708705 112.149116,19.5592758 109.76367,18.2477941 L109.76367,22.9904412 C111.384644,23.7709559 113.525094,24.6415441 117.500749,24.6415441 C123.127715,24.6415441 125.3603,22.1783088 125.3603,18.5176471 M125.3603,18.5176471 C125.3603,15.0654412 123.494757,13.4441176 118.234831,12.3338235 C115.329588,11.7033088 114.626217,11.0731618 114.626217,10.1724265 C114.626217,9.03272059 115.665918,8.55147059 117.592509,8.55147059 C119.916854,8.55147059 122.210487,9.24191176 124.381648,10.2025735 L124.381648,5.66948529 C122.29975,4.73932485 120.032339,4.27782395 117.745318,4.31875 C112.546442,4.31875 109.855431,6.54007353 109.855431,10.1724265" id="Shape" fill-rule="nonzero"></path>
            <polygon id="Path" points="182.146816 4.61875 182.146816 24.3415441 186.42809 24.3415441 186.42809 9.30183824 188.232584 13.2941176 194.28764 24.3415441 199.670037 24.3415441 199.670037 4.61875 195.388764 4.61875 195.388764 17.3470588 193.76779 13.6544118 188.905243 4.61875"></polygon>
            <rect id="Rectangle" x="150.237079" y="4.61875" width="4.67902622" height="19.7227941"></rect>
            <path d="M144.838202,18.5176471 C144.838202,15.0654412 142.972659,13.4441176 137.712734,12.3338235 C134.807491,11.7033088 134.10412,11.0731618 134.10412,10.1724265 C134.10412,9.03272059 135.14382,8.55147059 137.070412,8.55147059 C139.394757,8.55147059 141.68839,9.24191176 143.859551,10.2025735 L143.859551,5.66948529 C141.777653,4.73932485 139.510242,4.27782395 137.223221,4.31875 C132.024345,4.31875 129.333333,6.54007353 129.333333,10.1724265 C129.333333,13.0841912 130.709363,15.3959559 136.09176,16.4165441 C139.302996,17.0783088 139.975655,17.5871324 139.975655,18.6378676 C139.975655,19.6584559 139.301498,20.3191176 137.0397,20.3191176 C134.306033,20.2708705 131.627018,19.5592758 129.241573,18.2477941 L129.241573,22.9904412 C130.862547,23.7709559 133.002996,24.6415441 136.978652,24.6415441 C142.605618,24.6415441 144.838202,22.1783088 144.838202,18.5176471" id="Path"></path>
            <polygon id="Path" points="73.5074906 4.61875 73.5074906 24.3415441 83.1247191 24.3415441 84.6389513 20.0786765 78.2168539 20.0786765 78.2168539 4.61875"></polygon>
            <polygon id="Path" points="54.5067416 4.61875 54.5067416 8.88125 59.705618 8.88125 59.705618 24.3415441 64.4149813 24.3415441 64.4149813 8.88125 69.9808989 8.88125 69.9808989 4.61875"></polygon>
            <path d="M47.6779026,4.61875 L41.5059925,4.61875 L34.4996255,24.3415441 L39.8501873,24.3415441 L40.8434457,21.0198529 C43.2896841,21.7249481 45.8908402,21.7249481 48.3370787,21.0198529 L49.3303371,24.3415441 L54.6820225,24.3415441 L47.6779026,4.61875 Z M44.5917603,17.4632353 C43.720186,17.4631857 42.8531009,17.3407445 42.0168539,17.0996324 L44.5917603,8.49264706 L47.1666667,17.1025735 C46.3302725,17.3426906 45.4631903,17.464141 44.5917603,17.4632353 Z" id="Shape" fill-rule="nonzero"></path>
            <path d="M99.7044944,4.61875 L93.5329588,4.61875 L86.5265918,24.3415441 L91.8782772,24.3415441 L92.8715356,21.0198529 C95.317774,21.7249481 97.9189301,21.7249481 100.365169,21.0198529 L101.358427,24.3415441 L106.710112,24.3415441 L99.7044944,4.61875 Z M96.6187266,17.4632353 C95.7471523,17.4631857 94.8800672,17.3407445 94.0438202,17.0996324 L96.6187266,8.49264706 L99.193633,17.1025735 C98.3572388,17.3426906 97.4901565,17.464141 96.6187266,17.4632353 Z" id="Shape" fill-rule="nonzero"></path>
            <path d="M171.776779,4.61875 L165.605243,4.61875 L158.598876,24.3415441 L163.950562,24.3415441 L164.94382,21.0198529 C167.390059,21.7249481 169.991215,21.7249481 172.437453,21.0198529 L173.430712,24.3415441 L178.782772,24.3415441 L171.776779,4.61875 Z M168.689139,17.4632353 C167.817564,17.4631857 166.950479,17.3407445 166.114232,17.0996324 L168.689139,8.49264706 L171.264045,17.1025735 C170.427651,17.3426906 169.560569,17.464141 168.689139,17.4632353 Z" id="Shape" fill-rule="nonzero"></path>
        </g>
    </g>
</svg>