<?xml version="1.0" encoding="UTF-8"?>
<svg width="200px" height="51px" viewBox="0 0 200 51" version="1.1" xmlns="http://www.w3.org/2000/svg" xmlns:xlink="http://www.w3.org/1999/xlink">
    <!-- Generator: Sketch 52.6 (67491) - http://www.bohemiancoding.com/sketch -->
    <title>Slack_Monochrome_White</title>
    <desc>Created with Sketch.</desc>
    <g id="Page-1" stroke="none" stroke-width="1" fill="none" fill-rule="evenodd">
        <g id="Slack_Monochrome_White" fill="#FFFFFF">
            <g id="Group" transform="translate(63.855422, 0.803150)">
                <path d="M0.200803213,39.1535433 L2.69076305,33.3708661 C5.3815261,35.3787402 8.95582329,36.4228346 12.4899598,36.4228346 C15.1004016,36.4228346 16.746988,35.4188976 16.746988,33.8929134 C16.7068273,29.6362205 1.12449799,32.9692913 1.00401606,22.2874016 C0.963855422,16.8661417 5.78313253,12.6897638 12.6104418,12.6897638 C16.6666667,12.6897638 20.7228916,13.6937008 23.6144578,15.9826772 L21.2851406,21.8858268 C18.6345382,20.1992126 15.3413655,18.9944882 12.2088353,18.9944882 C10.0803213,18.9944882 8.6746988,19.9984252 8.6746988,21.2834646 C8.71485944,25.4598425 24.4176707,23.1708661 24.5783133,33.3708661 C24.5783133,38.9125984 19.8795181,42.807874 13.1325301,42.807874 C8.19277108,42.807874 3.65461847,41.6433071 0.200803213,39.1535433" id="Path"></path>
                <path d="M95.7429719,31.2826772 C94.497992,33.4511811 92.1686747,34.9370079 89.4779116,34.9370079 C85.502008,34.9370079 82.2891566,31.7244094 82.2891566,27.7488189 C82.2891566,23.7732283 85.502008,20.5606299 89.4779116,20.5606299 C92.1686747,20.5606299 94.497992,22.0464567 95.7429719,24.2149606 L102.610442,20.4 C100.040161,15.8220472 95.1004016,12.6897638 89.4779116,12.6897638 C81.1646586,12.6897638 74.4176707,19.4362205 74.4176707,27.7488189 C74.4176707,36.0614173 81.1646586,42.807874 89.4779116,42.807874 C95.1405622,42.807874 100.040161,39.715748 102.610442,35.0976378 L95.7429719,31.2826772 Z" id="Path"></path>
                <rect id="Rectangle" x="28.0321285" y="0.200787402" width="8.59437751" height="42.0448819"></rect>
                <polygon id="Path" points="105.983936 0.200787402 105.983936 42.2456693 114.578313 42.2456693 114.578313 29.6362205 124.779116 42.2456693 135.783133 42.2456693 122.811245 27.2669291 134.819277 13.292126 124.297189 13.292126 114.578313 24.8976378 114.578313 0.200787402"></polygon>
                <path d="M62.1686747,31.3629921 C60.9236948,33.4110236 58.3534137,34.9370079 55.4618474,34.9370079 C51.4859438,34.9370079 48.2730924,31.7244094 48.2730924,27.7488189 C48.2730924,23.7732283 51.4859438,20.5606299 55.4618474,20.5606299 C58.3534137,20.5606299 60.9236948,22.1669291 62.1686747,24.2551181 L62.1686747,31.3629921 Z M62.1686747,13.292126 L62.1686747,16.7055118 C60.7630522,14.3362205 57.2690763,12.6897638 53.6144578,12.6897638 C46.064257,12.6897638 40.1204819,19.3559055 40.1204819,27.7086614 C40.1204819,36.0614173 46.064257,42.807874 53.6144578,42.807874 C57.2690763,42.807874 60.7630522,41.1614173 62.1686747,38.792126 L62.1686747,42.2055118 L70.7630522,42.2055118 L70.7630522,13.292126 L62.1686747,13.292126 Z" id="Shape" fill-rule="nonzero"></path>
            </g>
            <g id="Group">
                <g transform="translate(0.000000, 26.503937)" id="Path">
                    <path d="M10.9236948,5.62204724 C10.9236948,8.55354331 8.55421687,10.9228346 5.62248996,10.9228346 C2.69076305,10.9228346 0.321285141,8.55354331 0.321285141,5.62204724 C0.321285141,2.69055118 2.69076305,0.321259843 5.62248996,0.321259843 L10.9236948,0.321259843 L10.9236948,5.62204724 Z"></path>
                    <path d="M13.5742972,5.62204724 C13.5742972,2.69055118 15.9437751,0.321259843 18.875502,0.321259843 C21.8072289,0.321259843 24.1767068,2.69055118 24.1767068,5.62204724 L24.1767068,18.8740157 C24.1767068,21.8055118 21.8072289,24.1748031 18.875502,24.1748031 C15.9437751,24.1748031 13.5742972,21.8055118 13.5742972,18.8740157 L13.5742972,5.62204724 Z"></path>
                </g>
                <g id="Path">
                    <path d="M18.875502,10.8425197 C15.9437751,10.8425197 13.5742972,8.47322835 13.5742972,5.54173228 C13.5742972,2.61023622 15.9437751,0.240944882 18.875502,0.240944882 C21.8072289,0.240944882 24.1767068,2.61023622 24.1767068,5.54173228 L24.1767068,10.8425197 L18.875502,10.8425197 Z"></path>
                    <path d="M18.875502,13.5330709 C21.8072289,13.5330709 24.1767068,15.9023622 24.1767068,18.8338583 C24.1767068,21.7653543 21.8072289,24.1346457 18.875502,24.1346457 L5.58232932,24.1346457 C2.65060241,24.1346457 0.281124498,21.7653543 0.281124498,18.8338583 C0.281124498,15.9023622 2.65060241,13.5330709 5.58232932,13.5330709 L18.875502,13.5330709 Z"></path>
                </g>
                <g transform="translate(26.506024, 0.000000)" id="Path">
                    <path d="M13.6144578,18.8338583 C13.6144578,15.9023622 15.9839357,13.5330709 18.9156627,13.5330709 C21.8473896,13.5330709 24.2168675,15.9023622 24.2168675,18.8338583 C24.2168675,21.7653543 21.8473896,24.1346457 18.9156627,24.1346457 L13.6144578,24.1346457 L13.6144578,18.8338583 Z"></path>
                    <path d="M10.9638554,18.8338583 C10.9638554,21.7653543 8.59437751,24.1346457 5.6626506,24.1346457 C2.73092369,24.1346457 0.361445783,21.7653543 0.361445783,18.8338583 L0.361445783,5.54173228 C0.361445783,2.61023622 2.73092369,0.240944882 5.6626506,0.240944882 C8.59437751,0.240944882 10.9638554,2.61023622 10.9638554,5.54173228 L10.9638554,18.8338583 Z"></path>
                </g>
                <g transform="translate(26.506024, 26.503937)" id="Path">
                    <path d="M5.6626506,13.5732283 C8.59437751,13.5732283 10.9638554,15.9425197 10.9638554,18.8740157 C10.9638554,21.8055118 8.59437751,24.1748031 5.6626506,24.1748031 C2.73092369,24.1748031 0.361445783,21.8055118 0.361445783,18.8740157 L0.361445783,13.5732283 L5.6626506,13.5732283 Z"></path>
                    <path d="M5.6626506,10.9228346 C2.73092369,10.9228346 0.361445783,8.55354331 0.361445783,5.62204724 C0.361445783,2.69055118 2.73092369,0.321259843 5.6626506,0.321259843 L18.9558233,0.321259843 C21.8875502,0.321259843 24.2570281,2.69055118 24.2570281,5.62204724 C24.2570281,8.55354331 21.8875502,10.9228346 18.9558233,10.9228346 L5.6626506,10.9228346 Z"></path>
                </g>
            </g>
        </g>
    </g>
</svg>