<?xml version="1.0" encoding="UTF-8"?>
<svg width="160px" height="43px" viewBox="0 0 160 43" version="1.1" xmlns="http://www.w3.org/2000/svg" xmlns:xlink="http://www.w3.org/1999/xlink">
    <!-- Generator: Sketch 52.6 (67491) - http://www.bohemiancoding.com/sketch -->
    <title>github</title>
    <desc>Created with Sketch.</desc>
    <g id="Page-1" stroke="none" stroke-width="1" fill="none" fill-rule="evenodd">
        <g id="github" fill="#FFFFFE">
            <path d="M31.0634254,18.4228673 L17.6857459,18.4228673 C17.3405525,18.4228673 17.0607735,18.701051 17.0607735,19.0437347 L17.0607735,25.5367347 C17.0607735,25.8794184 17.3405525,26.1584796 17.6857459,26.1584796 L22.9043094,26.1584796 L22.9043094,34.2253673 C22.9043094,34.2253673 21.7325967,34.6220204 18.4928177,34.6220204 C14.6709392,34.6220204 9.33171271,33.2354898 9.33171271,21.5802959 C9.33171271,9.92203061 14.8914917,8.3885102 20.1109392,8.3885102 C24.6293923,8.3885102 26.5754696,9.17786735 27.8143646,9.55872449 C28.2037569,9.67719388 28.5635359,9.29238776 28.5635359,8.94926531 L30.0556906,2.67609184 C30.0556906,2.51506122 30.000884,2.32243878 29.8170166,2.1912449 C29.3140331,1.83495918 26.2453039,0.130316327 18.4928177,0.130316327 C9.56243094,0.130316327 0.401325967,3.90203061 0.401325967,22.0348673 C0.401325967,40.1677041 10.8897238,42.8696837 19.7281768,42.8696837 C27.0461878,42.8696837 31.4855249,39.7653469 31.4855249,39.7653469 C31.6685083,39.6648673 31.6883978,39.4108163 31.6883978,39.2949796 L31.6883978,19.0437347 C31.6883978,18.701051 31.4086188,18.4228673 31.0634254,18.4228673" id="Fill-3"></path>
            <path d="M100.00663,2.30313265 C100.00663,1.95737755 99.7308287,1.6787551 99.3851934,1.6787551 L91.8528177,1.6787551 C91.5089503,1.6787551 91.2291713,1.95737755 91.2291713,2.30313265 C91.2291713,2.30444898 91.2313812,16.7537653 91.2313812,16.7537653 L79.4899448,16.7537653 L79.4899448,2.30313265 C79.4899448,1.95737755 79.2132597,1.6787551 78.8685083,1.6787551 L71.3365746,1.6787551 C70.9940331,1.6787551 70.7142541,1.95737755 70.7142541,2.30313265 L70.7142541,41.4318163 C70.7142541,41.7771327 70.9940331,42.0575102 71.3365746,42.0575102 L78.8685083,42.0575102 C79.2132597,42.0575102 79.4899448,41.7771327 79.4899448,41.4318163 L79.4899448,24.6947245 L91.2313812,24.6947245 C91.2313812,24.6947245 91.2106077,41.4305 91.2106077,41.4318163 C91.2106077,41.7771327 91.4899448,42.0575102 91.8346961,42.0575102 L99.3847514,42.0575102 C99.7299448,42.0575102 100.005746,41.7771327 100.00663,41.4318163 L100.00663,2.30313265" id="Fill-4"></path>
            <path d="M45.2773481,7.4372449 C45.2773481,4.74491837 43.1032044,2.56903061 40.4203315,2.56903061 C37.7401105,2.56903061 35.5637569,4.74491837 35.5637569,7.4372449 C35.5637569,10.1273776 37.7401105,12.3094082 40.4203315,12.3094082 C43.1032044,12.3094082 45.2773481,10.1273776 45.2773481,7.4372449" id="Fill-5"></path>
            <path d="M44.7390055,33.1775714 C44.7390055,32.1749694 44.7390055,15.1158163 44.7390055,15.1158163 C44.7390055,14.7726939 44.4601105,14.4923163 44.1158011,14.4923163 L36.6068508,14.4923163 C36.2625414,14.4923163 35.9544751,14.8450918 35.9544751,15.1877755 C35.9544751,15.1877755 35.9544751,36.9220816 35.9544751,41.0654388 C35.9544751,41.8258367 36.4318232,42.0522449 37.0492818,42.0522449 C37.0492818,42.0522449 40.2545856,42.0522449 43.8143646,42.0522449 C44.5569061,42.0522449 44.7390055,41.6902551 44.7390055,41.0531531 C44.7390055,39.6661837 44.7390055,34.2323878 44.7390055,33.1775714" id="Fill-6"></path>
            <path d="M128.632928,14.5511122 L121.158453,14.5511122 C120.815912,14.5511122 120.536575,14.8319286 120.536575,15.1772449 L120.536575,34.3627041 C120.536575,34.3627041 118.637348,35.7422143 115.942099,35.7422143 C113.247293,35.7422143 112.532155,34.5281224 112.532155,31.9086327 C112.532155,29.2851939 112.532155,15.1772449 112.532155,15.1772449 C112.532155,14.8319286 112.253702,14.5511122 111.910276,14.5511122 L104.323978,14.5511122 C103.981878,14.5511122 103.701215,14.8319286 103.701215,15.1772449 C103.701215,15.1772449 103.701215,25.3941327 103.701215,33.1749388 C103.701215,40.9570612 108.069834,42.8609082 114.079558,42.8609082 C119.010387,42.8609082 122.985635,40.1562959 122.985635,40.1562959 C122.985635,40.1562959 123.174807,41.5818776 123.260552,41.7503673 C123.345856,41.9188571 123.569061,42.0895408 123.810387,42.0895408 L128.636464,42.0680408 C128.978564,42.0680408 129.259227,41.7872245 129.259227,41.4432245 L129.256575,15.1772449 C129.256575,14.8319286 128.97768,14.5511122 128.632928,14.5511122" id="Fill-7"></path>
            <path d="M146.114475,35.7185204 C143.521768,35.6404184 141.763094,34.4719592 141.763094,34.4719592 L141.763094,22.0809388 C141.763094,22.0809388 143.497901,21.0252449 145.626519,20.8365714 C148.318232,20.597 150.911823,21.4043469 150.911823,27.7788776 C150.911823,34.5004796 149.741436,35.826898 146.114475,35.7185204 Z M149.062541,13.6722449 C144.817238,13.6722449 141.929724,15.552398 141.929724,15.552398 L141.929724,2.30313265 C141.929724,1.95737755 141.651271,1.6787551 141.308287,1.6787551 L133.754254,1.6787551 C133.410829,1.6787551 133.131934,1.95737755 133.131934,2.30313265 L133.131934,41.4318163 C133.131934,41.7771327 133.410829,42.0575102 133.755138,42.0575102 C133.756022,42.0575102 138.994475,42.0575102 138.996243,42.0575102 C139.232265,42.0575102 139.410829,41.9368469 139.542983,41.7257959 C139.67337,41.5151837 139.861215,39.9211122 139.861215,39.9211122 C139.861215,39.9211122 142.949834,42.8271224 148.796906,42.8271224 C155.661878,42.8271224 159.598674,39.370449 159.598674,27.3093878 C159.598674,15.2483265 153.310939,13.6722449 149.062541,13.6722449 Z" id="Fill-8"></path>
            <path d="M66.3876243,14.4888061 L60.7372376,14.4888061 C60.7372376,14.4888061 60.7288398,7.08052041 60.7288398,7.07876531 C60.7288398,6.79794898 60.5829834,6.65797959 60.2563536,6.65797959 L52.5569061,6.65797959 C52.2572376,6.65797959 52.0967956,6.78873469 52.0967956,7.07437755 L52.0967956,14.7318878 C52.0967956,14.7318878 48.238232,15.6568265 47.9770166,15.7309796 C47.7175691,15.8060102 47.5261878,16.0438265 47.5261878,16.3277143 L47.5261878,21.1397653 C47.5261878,21.4859592 47.8046409,21.7650204 48.1489503,21.7650204 L52.0967956,21.7650204 C52.0967956,21.7650204 52.0967956,26.7977755 52.0967956,33.3416735 C52.0967956,41.9403571 58.1723757,42.785 62.2718232,42.785 C64.1454144,42.785 66.3862983,42.1873878 66.7562431,42.0522449 C66.9798895,41.9701939 67.1098343,41.7402755 67.1098343,41.4906122 L67.1164641,36.1972245 C67.1164641,35.8523469 66.8225414,35.5724082 66.4919337,35.5724082 C66.1622099,35.5724082 65.320221,35.7057959 64.4530387,35.7057959 C61.6773481,35.7057959 60.7372376,34.4245714 60.7372376,32.7664388 C60.7372376,31.1091837 60.7367956,21.7650204 60.7367956,21.7650204 L66.3876243,21.7650204 C66.7319337,21.7650204 67.0108287,21.4859592 67.0108287,21.1397653 L67.0108287,15.1123061 C67.0108287,14.7669898 66.7319337,14.4888061 66.3876243,14.4888061" id="Fill-9"></path>
        </g>
    </g>
</svg>