<?xml version="1.0" encoding="UTF-8"?>
<svg width="98px" height="25px" viewBox="0 0 98 25" version="1.1" xmlns="http://www.w3.org/2000/svg" xmlns:xlink="http://www.w3.org/1999/xlink">
    <!-- Generator: Sketch 52.6 (67491) - http://www.bohemiancoding.com/sketch -->
    <title>company-logo-3</title>
    <desc>Created with Sketch.</desc>
    <g id="Page-1" stroke="none" stroke-width="1" fill="none" fill-rule="evenodd">
        <g id="company-logo-3">
            <g id="Group" transform="translate(31.299213, 0.393701)" fill="#000000">
                <path d="M0.0984251969,19.1929134 L1.31889764,16.3582677 C2.63779528,17.3425197 4.38976378,17.8543307 6.12204724,17.8543307 C7.4015748,17.8543307 8.20866142,17.3622047 8.20866142,16.6141732 C8.18897638,14.5275591 0.551181102,16.1614173 0.492125984,10.9251969 C0.472440945,8.26771654 2.83464567,6.22047244 6.18110236,6.22047244 C8.16929134,6.22047244 10.1574803,6.71259843 11.5748031,7.83464567 L10.4330709,10.7283465 C9.13385827,9.9015748 7.51968504,9.31102362 5.98425197,9.31102362 C4.94094488,9.31102362 4.2519685,9.80314961 4.2519685,10.4330709 C4.27165354,12.480315 11.9685039,11.3582677 12.0472441,16.3582677 C12.0472441,19.0748031 9.74409449,20.984252 6.43700787,20.984252 C4.01574803,20.984252 1.79133858,20.4133858 0.0984251969,19.1929134" id="Path"></path>
                <path d="M46.9291339,15.3346457 C46.3188976,16.3976378 45.1771654,17.1259843 43.8582677,17.1259843 C41.9094488,17.1259843 40.3346457,15.5511811 40.3346457,13.6023622 C40.3346457,11.6535433 41.9094488,10.0787402 43.8582677,10.0787402 C45.1771654,10.0787402 46.3188976,10.8070866 46.9291339,11.8700787 L50.2952756,10 C49.0354331,7.75590551 46.6141732,6.22047244 43.8582677,6.22047244 C39.7834646,6.22047244 36.476378,9.52755906 36.476378,13.6023622 C36.476378,17.6771654 39.7834646,20.984252 43.8582677,20.984252 C46.6338583,20.984252 49.0354331,19.4685039 50.2952756,17.2047244 L46.9291339,15.3346457 Z" id="Path"></path>
                <rect id="Rectangle" x="13.7401575" y="0.0984251969" width="4.21259843" height="20.6102362"></rect>
                <polygon id="Path" points="51.9488189 0.0984251969 51.9488189 20.7086614 56.1614173 20.7086614 56.1614173 14.5275591 61.1614173 20.7086614 66.5551181 20.7086614 60.1968504 13.3661417 66.0826772 6.51574803 60.9251969 6.51574803 56.1614173 12.2047244 56.1614173 0.0984251969"></polygon>
                <path d="M30.4724409,15.3740157 C29.8622047,16.3779528 28.6023622,17.1259843 27.1850394,17.1259843 C25.2362205,17.1259843 23.6614173,15.5511811 23.6614173,13.6023622 C23.6614173,11.6535433 25.2362205,10.0787402 27.1850394,10.0787402 C28.6023622,10.0787402 29.8622047,10.8661417 30.4724409,11.8897638 L30.4724409,15.3740157 Z M30.4724409,6.51574803 L30.4724409,8.18897638 C29.7834646,7.02755906 28.0708661,6.22047244 26.2795276,6.22047244 C22.5787402,6.22047244 19.6653543,9.48818898 19.6653543,13.5826772 C19.6653543,17.6771654 22.5787402,20.984252 26.2795276,20.984252 C28.0708661,20.984252 29.7834646,20.1771654 30.4724409,19.015748 L30.4724409,20.6889764 L34.6850394,20.6889764 L34.6850394,6.51574803 L30.4724409,6.51574803 Z" id="Shape" fill-rule="nonzero"></path>
            </g>
            <g id="Group">
                <g transform="translate(0.000000, 12.992126)" fill="#E01E5A" id="Path">
                    <path d="M5.35433071,2.75590551 C5.35433071,4.19291339 4.19291339,5.35433071 2.75590551,5.35433071 C1.31889764,5.35433071 0.157480315,4.19291339 0.157480315,2.75590551 C0.157480315,1.31889764 1.31889764,0.157480315 2.75590551,0.157480315 L5.35433071,0.157480315 L5.35433071,2.75590551 Z"></path>
                    <path d="M6.65354331,2.75590551 C6.65354331,1.31889764 7.81496063,0.157480315 9.2519685,0.157480315 C10.6889764,0.157480315 11.8503937,1.31889764 11.8503937,2.75590551 L11.8503937,9.2519685 C11.8503937,10.6889764 10.6889764,11.8503937 9.2519685,11.8503937 C7.81496063,11.8503937 6.65354331,10.6889764 6.65354331,9.2519685 L6.65354331,2.75590551 Z"></path>
                </g>
                <g fill="#36C5F0" id="Path">
                    <path d="M9.2519685,5.31496063 C7.81496063,5.31496063 6.65354331,4.15354331 6.65354331,2.71653543 C6.65354331,1.27952756 7.81496063,0.118110236 9.2519685,0.118110236 C10.6889764,0.118110236 11.8503937,1.27952756 11.8503937,2.71653543 L11.8503937,5.31496063 L9.2519685,5.31496063 Z"></path>
                    <path d="M9.2519685,6.63385827 C10.6889764,6.63385827 11.8503937,7.79527559 11.8503937,9.23228346 C11.8503937,10.6692913 10.6889764,11.8307087 9.2519685,11.8307087 L2.73622047,11.8307087 C1.2992126,11.8307087 0.137795276,10.6692913 0.137795276,9.23228346 C0.137795276,7.79527559 1.2992126,6.63385827 2.73622047,6.63385827 L9.2519685,6.63385827 Z"></path>
                </g>
                <g transform="translate(12.992126, 0.000000)" fill="#2EB67D" id="Path">
                    <path d="M6.67322835,9.23228346 C6.67322835,7.79527559 7.83464567,6.63385827 9.27165354,6.63385827 C10.7086614,6.63385827 11.8700787,7.79527559 11.8700787,9.23228346 C11.8700787,10.6692913 10.7086614,11.8307087 9.27165354,11.8307087 L6.67322835,11.8307087 L6.67322835,9.23228346 Z"></path>
                    <path d="M5.37401575,9.23228346 C5.37401575,10.6692913 4.21259843,11.8307087 2.77559055,11.8307087 C1.33858268,11.8307087 0.177165354,10.6692913 0.177165354,9.23228346 L0.177165354,2.71653543 C0.177165354,1.27952756 1.33858268,0.118110236 2.77559055,0.118110236 C4.21259843,0.118110236 5.37401575,1.27952756 5.37401575,2.71653543 L5.37401575,9.23228346 Z"></path>
                </g>
                <g transform="translate(12.992126, 12.992126)" fill="#ECB22E" id="Path">
                    <path d="M2.77559055,6.65354331 C4.21259843,6.65354331 5.37401575,7.81496063 5.37401575,9.2519685 C5.37401575,10.6889764 4.21259843,11.8503937 2.77559055,11.8503937 C1.33858268,11.8503937 0.177165354,10.6889764 0.177165354,9.2519685 L0.177165354,6.65354331 L2.77559055,6.65354331 Z"></path>
                    <path d="M2.77559055,5.35433071 C1.33858268,5.35433071 0.177165354,4.19291339 0.177165354,2.75590551 C0.177165354,1.31889764 1.33858268,0.157480315 2.77559055,0.157480315 L9.29133858,0.157480315 C10.7283465,0.157480315 11.8897638,1.31889764 11.8897638,2.75590551 C11.8897638,4.19291339 10.7283465,5.35433071 9.29133858,5.35433071 L2.77559055,5.35433071 Z"></path>
                </g>
            </g>
        </g>
    </g>
</svg>