<?xml version="1.0" encoding="UTF-8"?>
<svg width="157px" height="20px" viewBox="0 0 157 20" version="1.1" xmlns="http://www.w3.org/2000/svg" xmlns:xlink="http://www.w3.org/1999/xlink">
    <!-- Generator: Sketch 52.6 (67491) - http://www.bohemiancoding.com/sketch -->
    <title>company-logo-2</title>
    <desc>Created with Sketch.</desc>
    <defs>
        <linearGradient x1="99.684716%" y1="15.8138128%" x2="39.8444399%" y2="97.4388388%" id="linearGradient-1">
            <stop stop-color="#0052CC" offset="0%"></stop>
            <stop stop-color="#2684FF" offset="92.3%"></stop>
        </linearGradient>
    </defs>
    <g id="Page-1" stroke="none" stroke-width="1" fill="none" fill-rule="evenodd">
        <g id="company-logo-2">
            <path d="M5.98647059,9.15147059 C5.87050081,8.99971609 5.68365153,8.91960835 5.49377568,8.94023787 C5.30389983,8.9608674 5.13861426,9.0792337 5.05794118,9.25235294 L0.352941176,18.6594118 C0.26579323,18.8337261 0.275108972,19.0407343 0.377561863,19.2065163 C0.480014755,19.3722982 0.660997123,19.4732168 0.855882353,19.4732353 L7.40735294,19.4732353 C7.62173454,19.4782125 7.81889809,19.3563401 7.91029412,19.1623529 C9.32352941,16.2420588 8.46705882,11.8017647 5.98647059,9.15147059 Z" id="Path" fill="url(#linearGradient-1)"></path>
            <path d="M9.43735294,0.595294118 C7.05232007,4.26509608 6.77705096,8.91997154 8.71294118,12.8452941 L11.8714706,19.1623529 C11.9667159,19.3528637 12.1614188,19.4732151 12.3744118,19.4732353 L18.9247059,19.4732353 C19.1195911,19.4732168 19.3005735,19.3722982 19.4030264,19.2065163 C19.5054793,19.0407343 19.514795,18.8337261 19.4276471,18.6594118 C19.4276471,18.6594118 10.6152941,1.03264706 10.3938235,0.591764706 C10.3044724,0.408639442 10.1182407,0.292766103 9.91448118,0.293517983 C9.7107217,0.294269863 9.5253502,0.411514432 9.43735294,0.595294118 Z" id="Path" fill="#2684FF"></path>
            <path d="M86.2688235,8.13794118 C86.2688235,10.4673529 87.3494118,12.3167647 91.5761765,13.1332353 C94.0979412,13.6626471 94.6261765,14.0697059 94.6261765,14.9102941 C94.6261765,15.7267647 94.0967647,16.2552941 92.3205882,16.2552941 C90.1738551,16.2166964 88.0700407,15.6474207 86.1967647,14.5982353 L86.1967647,18.3923529 C87.4697059,19.0167647 89.1505882,19.7132353 92.2726471,19.7132353 C96.6914706,19.7132353 98.4447059,17.7426471 98.4447059,14.8141176 M98.4447059,14.8141176 C98.4447059,12.0523529 96.9797059,10.7552941 92.8491176,9.86705882 C90.5676471,9.36264706 90.0152941,8.85852941 90.0152941,8.13794118 C90.0152941,7.22617647 90.8317647,6.84117647 92.3447059,6.84117647 C94.17,6.84117647 95.9711765,7.39352941 97.6761765,8.16205882 L97.6761765,4.53558824 C96.0412746,3.79145988 94.2606901,3.42225916 92.4647059,3.455 C88.3820588,3.455 86.2688235,5.23205882 86.2688235,8.13794118" id="Shape" fill="#0052CC" fill-rule="nonzero"></path>
            <polygon id="Path" fill="#0052CC" points="143.038824 3.695 143.038824 19.4732353 146.400882 19.4732353 146.400882 7.44147059 147.817941 10.6352941 152.572941 19.4732353 156.799706 19.4732353 156.799706 3.695 153.437647 3.695 153.437647 13.8776471 152.164706 10.9235294 148.346176 3.695"></polygon>
            <rect id="Rectangle" fill="#0052CC" x="117.980294" y="3.695" width="3.67441176" height="15.7782353"></rect>
            <path d="M113.740588,14.8141176 C113.740588,12.0523529 112.275588,10.7552941 108.145,9.86705882 C105.863529,9.36264706 105.311176,8.85852941 105.311176,8.13794118 C105.311176,7.22617647 106.127647,6.84117647 107.640588,6.84117647 C109.465882,6.84117647 111.267059,7.39352941 112.972059,8.16205882 L112.972059,4.53558824 C111.337157,3.79145988 109.556572,3.42225916 107.760588,3.455 C103.677941,3.455 101.564706,5.23205882 101.564706,8.13794118 C101.564706,10.4673529 102.645294,12.3167647 106.872059,13.1332353 C109.393824,13.6626471 109.922059,14.0697059 109.922059,14.9102941 C109.922059,15.7267647 109.392647,16.2552941 107.616471,16.2552941 C105.469737,16.2166964 103.365923,15.6474207 101.492647,14.5982353 L101.492647,18.3923529 C102.765588,19.0167647 104.446471,19.7132353 107.568529,19.7132353 C111.987353,19.7132353 113.740588,17.7426471 113.740588,14.8141176" id="Path" fill="#0052CC"></path>
            <polygon id="Path" fill="#0052CC" points="57.725 3.695 57.725 19.4732353 65.2773529 19.4732353 66.4664706 16.0629412 61.4232353 16.0629412 61.4232353 3.695"></polygon>
            <polygon id="Path" fill="#0052CC" points="42.8038235 3.695 42.8038235 7.105 46.8864706 7.105 46.8864706 19.4732353 50.5847059 19.4732353 50.5847059 7.105 54.9555882 7.105 54.9555882 3.695"></polygon>
            <path d="M37.4411765,3.695 L32.5944118,3.695 L27.0923529,19.4732353 L31.2941176,19.4732353 L32.0741176,16.8158824 C33.9951343,17.3799585 36.0378069,17.3799585 37.9588235,16.8158824 L38.7388235,19.4732353 L42.9414706,19.4732353 L37.4411765,3.695 Z M35.0176471,13.9705882 C34.3332049,13.9705485 33.652288,13.8725956 32.9955882,13.6797059 L35.0176471,6.79411765 L37.0397059,13.6820588 C36.3828905,13.8741525 35.7019759,13.9713128 35.0176471,13.9705882 Z" id="Shape" fill="#0052CC" fill-rule="nonzero"></path>
            <path d="M78.2973529,3.695 L73.4508824,3.695 L67.9488235,19.4732353 L72.1514706,19.4732353 L72.9314706,16.8158824 C74.8524872,17.3799585 76.8951598,17.3799585 78.8161765,16.8158824 L79.5961765,19.4732353 L83.7988235,19.4732353 L78.2973529,3.695 Z M75.8741176,13.9705882 C75.1896755,13.9705485 74.5087586,13.8725956 73.8520588,13.6797059 L75.8741176,6.79411765 L77.8961765,13.6820588 C77.2393611,13.8741525 76.5584465,13.9713128 75.8741176,13.9705882 Z" id="Shape" fill="#0052CC" fill-rule="nonzero"></path>
            <path d="M134.895294,3.695 L130.048824,3.695 L124.546765,19.4732353 L128.749412,19.4732353 L129.529412,16.8158824 C131.450428,17.3799585 133.493101,17.3799585 135.414118,16.8158824 L136.194118,19.4732353 L140.397059,19.4732353 L134.895294,3.695 Z M132.470588,13.9705882 C131.786146,13.9705485 131.105229,13.8725956 130.448529,13.6797059 L132.470588,6.79411765 L134.492647,13.6820588 C133.835832,13.8741525 133.154917,13.9713128 132.470588,13.9705882 Z" id="Shape" fill="#0052CC" fill-rule="nonzero"></path>
        </g>
    </g>
</svg>