<?xml version="1.0" encoding="UTF-8"?>
<svg width="127px" height="25px" viewBox="0 0 127 25" version="1.1" xmlns="http://www.w3.org/2000/svg" xmlns:xlink="http://www.w3.org/1999/xlink">
    <!-- Generator: Sketch 52.6 (67491) - http://www.bohemiancoding.com/sketch -->
    <title>Group 2</title>
    <desc>Created with Sketch.</desc>
    <g id="Page-1" stroke="none" stroke-width="1" fill="none" fill-rule="evenodd">
        <g id="Group-2" fill-rule="nonzero">
            <path d="M14.6875,4.6875 L7.34375,9.375 L14.6875,14.0625 L7.34375,18.75 L-4.26325641e-14,14.0234375 L7.34375,9.3359375 L-4.26325641e-14,4.6875 L7.34375,-2.13162821e-14 L14.6875,4.6875 Z M7.3046875,20.234375 L14.6484375,15.546875 L21.9921875,20.234375 L14.6484375,24.921875 L7.3046875,20.234375 Z M14.6875,14.0234375 L22.03125,9.3359375 L14.6875,4.6875 L21.9921875,-2.13162821e-14 L29.3359375,4.6875 L21.9921875,9.375 L29.3359375,14.0625 L21.9921875,18.75 L14.6875,14.0234375 Z" id="Shape" fill="#0061FF"></path>
            <path d="M35.078125,4.6875 L41.015625,4.6875 C44.8046875,4.6875 47.9296875,6.875 47.9296875,11.875 L47.9296875,12.9296875 C47.9296875,17.96875 45,20.234375 41.1328125,20.234375 L35.078125,20.234375 L35.078125,4.6875 Z M38.3984375,7.5 L38.3984375,17.3828125 L40.9375,17.3828125 C43.0859375,17.3828125 44.53125,15.9765625 44.53125,12.8515625 L44.53125,12.03125 C44.53125,8.90625 43.0078125,7.5 40.8203125,7.5 L38.3984375,7.5 Z M49.6875,7.65625 L52.34375,7.65625 L52.7734375,10.5859375 C53.28125,8.59375 54.5703125,7.5390625 56.9140625,7.5390625 L57.734375,7.5390625 L57.734375,10.8984375 L56.3671875,10.8984375 C53.671875,10.8984375 53.0078125,11.8359375 53.0078125,14.4921875 L53.0078125,20.2734375 L49.7265625,20.2734375 L49.7265625,7.65625 L49.6875,7.65625 Z M58.3984375,14.21875 L58.3984375,13.8671875 C58.3984375,9.6484375 61.09375,7.34375 64.765625,7.34375 C68.515625,7.34375 71.1328125,9.6484375 71.1328125,13.8671875 L71.1328125,14.21875 C71.1328125,18.359375 68.59375,20.5859375 64.765625,20.5859375 C60.703125,20.546875 58.3984375,18.359375 58.3984375,14.21875 Z M67.7734375,14.1796875 L67.7734375,13.8671875 C67.7734375,11.5234375 66.6015625,10.1171875 64.7265625,10.1171875 C62.890625,10.1171875 61.6796875,11.40625 61.6796875,13.8671875 L61.6796875,14.1796875 C61.6796875,16.4453125 62.8515625,17.734375 64.7265625,17.734375 C66.6015625,17.6953125 67.7734375,16.4453125 67.7734375,14.1796875 Z M72.8515625,7.65625 L75.5859375,7.65625 L75.8984375,10.0390625 C76.5625,8.4375 77.96875,7.34375 80.0390625,7.34375 C83.2421875,7.34375 85.3515625,9.6484375 85.3515625,13.90625 L85.3515625,14.2578125 C85.3515625,18.3984375 83.0078125,20.5859375 80.0390625,20.5859375 C78.046875,20.5859375 76.6796875,19.6875 76.015625,18.2421875 L76.015625,24.609375 L72.8125,24.609375 L72.8515625,7.65625 Z M82.03125,14.1796875 L82.03125,13.90625 C82.03125,11.40625 80.7421875,10.15625 79.0234375,10.15625 C77.1875,10.15625 75.9765625,11.5625 75.9765625,13.90625 L75.9765625,14.140625 C75.9765625,16.3671875 77.1484375,17.7734375 78.984375,17.7734375 C80.859375,17.734375 82.03125,16.5234375 82.03125,14.1796875 Z M90.1953125,17.9296875 L89.921875,20.234375 L87.109375,20.234375 L87.109375,3.4375 L90.3125,3.4375 L90.3125,9.8828125 C91.015625,8.2421875 92.421875,7.34375 94.4140625,7.34375 C97.421875,7.3828125 99.6484375,9.453125 99.6484375,13.6328125 L99.6484375,14.0234375 C99.6484375,18.203125 97.5390625,20.5859375 94.3359375,20.5859375 C92.2265625,20.546875 90.859375,19.5703125 90.1953125,17.9296875 Z M96.2890625,14.0234375 L96.2890625,13.7109375 C96.2890625,11.40625 95.0390625,10.1171875 93.28125,10.1171875 C91.484375,10.1171875 90.234375,11.5625 90.234375,13.75 L90.234375,14.0234375 C90.234375,16.3671875 91.4453125,17.734375 93.2421875,17.734375 C95.15625,17.734375 96.2890625,16.5234375 96.2890625,14.0234375 Z M101.054688,14.21875 L101.054688,13.8671875 C101.054688,9.6484375 103.75,7.34375 107.421875,7.34375 C111.171875,7.34375 113.789062,9.6484375 113.789062,13.8671875 L113.789062,14.21875 C113.789062,18.359375 111.210938,20.5859375 107.421875,20.5859375 C103.359375,20.546875 101.054688,18.359375 101.054688,14.21875 Z M110.46875,14.1796875 L110.46875,13.8671875 C110.46875,11.5234375 109.296875,10.1171875 107.421875,10.1171875 C105.585938,10.1171875 104.375,11.40625 104.375,13.8671875 L104.375,14.1796875 C104.375,16.4453125 105.546875,17.734375 107.421875,17.734375 C109.296875,17.6953125 110.46875,16.4453125 110.46875,14.1796875 Z M118.085937,13.7109375 L113.671875,7.65625 L117.460937,7.65625 L120,11.4453125 L122.578125,7.65625 L126.328125,7.65625 L121.835937,13.671875 L126.5625,20.234375 L122.851562,20.234375 L119.960937,16.0546875 L117.148437,20.234375 L113.28125,20.234375 L118.085937,13.7109375 Z" id="Shape" fill="#000000"></path>
        </g>
    </g>
</svg>