<?xml version="1.0" encoding="UTF-8"?>
<svg width="83px" height="25px" viewBox="0 0 83 25" version="1.1" xmlns="http://www.w3.org/2000/svg" xmlns:xlink="http://www.w3.org/1999/xlink">
    <!-- Generator: Sketch 52.6 (67491) - http://www.bohemiancoding.com/sketch -->
    <title>company-logo-4</title>
    <desc>Created with Sketch.</desc>
    <g id="Page-1" stroke="none" stroke-width="1" fill="none" fill-rule="evenodd">
        <g id="company-logo-4">
            <path d="M51.3559967,19.5089553 C46.5454263,23.0547268 39.5727972,24.946524 33.5694967,24.946524 C25.1518965,24.946524 17.5738982,21.8331656 11.8408493,16.6550447 C11.3904222,16.2478551 11.7940033,15.6929296 12.334519,16.010029 C18.5215969,19.6098518 26.171668,21.7755099 34.0739768,21.7755099 C39.4034371,21.7755099 45.2662086,20.6728601 50.6569313,18.3846879 C51.4713046,18.0387566 52.1523518,18.9179942 51.3559967,19.5089553" id="path8" fill="#FF9900"></path>
            <path d="M53.3558974,17.2207823 C52.7433129,16.4352359 49.2912334,16.8496291 47.7417624,17.033404 C47.2697119,17.0910596 47.1976465,16.6802682 47.6228477,16.3847856 C50.3722608,14.4497475 54.8837492,15.008279 55.4098485,15.656894 C55.935947,16.3091151 55.2729189,20.8314139 52.6892624,22.9898626 C52.2928858,23.3213767 51.9145265,23.1448113 52.0910952,22.7051921 C52.6712459,21.2566151 53.9720836,18.0099321 53.3558974,17.2207823" id="path10" fill="#FF9900"></path>
            <path d="M47.8498651,2.72420621 L47.8498651,0.843219288 C47.8498651,0.558548932 48.0660704,0.367567641 48.3255174,0.367567641 L56.7467169,0.367567641 C57.0169752,0.367567641 57.2331805,0.562152823 57.2331805,0.843219288 L57.2331805,2.45394992 C57.2295795,2.72420621 57.0025613,3.07734172 56.598976,3.63587227 L52.235231,9.86619288 C53.8567732,9.82655795 55.5683998,10.0679843 57.0385969,10.8967724 C57.3701109,11.0841498 57.460197,11.3580099 57.4854205,11.628269 L57.4854205,13.6353767 C57.4854205,13.9092359 57.1827326,14.2299379 56.8656316,14.0641821 C54.274769,12.7056904 50.8334992,12.5579503 47.9687773,14.0785969 C47.6769007,14.2371482 47.3706101,13.9200472 47.3706101,13.6461854 L47.3706101,11.7399752 C47.3706101,11.4336846 47.3742111,10.9111854 47.6805017,10.4463444 L52.7361068,3.19625522 L48.336327,3.19625522 C48.0660704,3.19625522 47.8498651,3.0052755 47.8498651,2.72420621" id="path12" fill="#000000"></path>
            <path d="M17.1306755,14.4605579 L14.5686416,14.4605579 C14.3236101,14.442543 14.1290248,14.2587682 14.1110066,14.024543 L14.1110066,0.875652649 C14.1110066,0.612602657 14.3308162,0.403602409 14.6046755,0.403602409 L16.993745,0.403602409 C17.2423841,0.414405389 17.4405695,0.605393551 17.4585886,0.843219288 L17.4585886,2.56205472 L17.5054329,2.56205472 C18.1288245,0.900874172 19.2999363,0.126138005 20.8782368,0.126138005 C22.4817599,0.126138005 23.4835124,0.900874172 24.204197,2.56205472 C24.8239859,0.900874172 26.2329238,0.126138005 27.7427599,0.126138005 C28.8165803,0.126138005 29.9912964,0.569359114 30.7083783,1.56390422 C31.5191482,2.67015522 31.3533899,4.27728204 31.3533899,5.6862226 L31.3497889,13.9849081 C31.3497889,14.247957 31.1299793,14.4605579 30.85612,14.4605579 L28.2976871,14.4605579 C28.041846,14.442543 27.8364512,14.2371482 27.8364512,13.9849081 L27.8364512,7.01588526 C27.8364512,6.46095853 27.8868957,5.07724354 27.7643816,4.55114214 C27.5734007,3.66830571 27.000457,3.41966697 26.258149,3.41966697 C25.6383601,3.41966697 24.989745,3.83406101 24.7266945,4.49709255 C24.463644,5.1601226 24.4888684,6.26997475 24.4888684,7.01588526 L24.4888684,13.9849081 C24.4888684,14.247957 24.2690596,14.4605579 23.9951987,14.4605579 L21.4367699,14.4605579 C21.1773228,14.442543 20.9755306,14.2371482 20.9755306,13.9849081 L20.9719296,7.01588526 C20.9719296,5.54929247 21.213356,3.39084015 19.39363,3.39084015 C17.5522781,3.39084015 17.6243469,5.49523882 17.6243469,7.01588526 L17.6243469,13.9849081 C17.6243469,14.247957 17.4045373,14.4605579 17.130678,14.4605579" id="path14" fill="#000000"></path>
            <path d="M64.4832699,0.126138005 C68.2848825,0.126138005 70.3424354,3.39084015 70.3424354,7.54198526 C70.3424354,11.5525952 68.068673,14.734418 64.4832699,14.734418 C60.7501217,14.734418 58.7177897,11.4697161 58.7177897,7.40145132 C58.7177897,3.30796101 60.7753452,0.126138005 64.4832699,0.126138005 M64.5048891,2.81069056 C62.6166962,2.81069056 62.4977815,5.38353286 62.4977815,6.98705853 C62.4977815,8.59418543 62.4725579,12.024644 64.4832699,12.024644 C66.4687558,12.024644 66.5624462,9.25721689 66.5624462,7.57081068 C66.5624462,6.46095853 66.515601,5.13489834 66.180481,4.08269694 C65.892207,3.16742988 65.3192649,2.81069056 64.5048891,2.81069056" id="path16" fill="#000000"></path>
            <path d="M75.2719205,14.4605579 L72.720697,14.4605579 C72.4648526,14.442543 72.2594578,14.2371482 72.2594578,13.9849081 L72.2558568,0.832409106 C72.2774776,0.590979561 72.4900811,0.403602409 72.7495265,0.403602409 L75.1241846,0.403602409 C75.3475944,0.414405389 75.5313692,0.565756631 75.5818195,0.771151829 L75.5818195,2.78186101 L75.6286614,2.78186101 C76.345745,0.983753311 77.3510969,0.126138005 79.1203783,0.126138005 C80.2698709,0.126138005 81.3905364,0.540532376 82.111221,1.67561018 C82.781457,2.72781002 82.781457,4.49709255 82.781457,5.76909892 L82.781457,14.0461664 C82.7526308,14.2767831 82.5400273,14.4605579 82.2877906,14.4605579 L79.718548,14.4605579 C79.4843237,14.442543 79.2897384,14.2695786 79.2645174,14.0461664 L79.2645174,6.90417955 C79.2645174,5.46641341 79.430274,3.362012 77.6609917,3.362012 C77.037601,3.362012 76.4646556,3.78001142 76.1799851,4.414212 C75.819644,5.21777757 75.7727988,6.01773767 75.7727988,6.90417955 L75.7727988,13.9849081 C75.7691978,14.247957 75.5457839,14.4605579 75.2719247,14.4605579" id="path18" fill="#000000"></path>
            <path d="M41.1366854,8.17979106 C41.1366854,9.17793874 41.1619089,10.0103295 40.6574296,10.8967724 C40.2502434,11.6174594 39.6016275,12.0606796 38.8845472,12.0606796 C37.9008121,12.0606796 37.3242641,11.3111656 37.3242641,10.2049147 C37.3242641,8.02124065 39.2809222,7.62486449 41.1366854,7.62486449 L41.1366854,8.17979106 M43.7203411,14.424524 C43.5509818,14.5758675 43.3059462,14.5866772 43.1149661,14.4857831 C42.2645563,13.7795124 42.1096101,13.4516018 41.644769,12.7777616 C40.2394329,14.211923 39.2412831,14.6407293 37.4215546,14.6407293 C35.2631035,14.6407293 33.5875132,13.3110654 33.5875132,10.6481382 C33.5875132,8.56896109 34.7117831,7.15281548 36.3189098,6.46095853 C37.7098303,5.84837434 39.6520728,5.74027359 41.1366854,5.57091291 L41.1366854,5.23939793 C41.1366854,4.63041738 41.1835306,3.90973245 40.8231879,3.38363526 C40.5132939,2.91158485 39.9151233,2.71699992 39.3854214,2.71699992 C38.4088924,2.71699992 37.5404694,3.21787566 37.3278659,4.25566159 C37.284625,4.48628228 37.1152657,4.71329793 36.8810406,4.72410811 L34.3982831,4.4574529 C34.1892831,4.41061093 33.9550621,4.24124752 34.0163204,3.92054536 C34.5856614,0.908083278 37.309851,1.79702053e-05 39.7457632,1.79702053e-05 C40.9925488,1.79702053e-05 42.6212955,0.3315337 43.6050306,1.27563005 C44.8518137,2.43953584 44.7329023,3.99261159 44.7329023,5.68261879 L44.7329023,9.67521192 C44.7329023,10.875154 45.2301747,11.4012508 45.6986192,12.04987 C45.8607757,12.2804868 45.8968096,12.5579503 45.6877988,12.7309147 C45.165303,13.1669313 44.2356184,13.9777012 43.7239329,14.4317318 L43.720332,14.4245132" id="path28" fill="#000000"></path>
            <path d="M7.54917326,8.17979106 C7.54917326,9.17793874 7.5743947,10.0103295 7.0699178,10.8967724 C6.66272864,11.6174594 6.01771639,12.0606796 5.29703146,12.0606796 C4.31329652,12.0606796 3.74035323,11.3111656 3.74035323,10.2049147 C3.74035323,8.02124065 5.69701159,7.62486449 7.54917326,7.62486449 L7.54917326,8.17979106 M10.132827,14.424524 C9.96346689,14.5758675 9.71843129,14.5866772 9.52745033,14.4857831 C8.6770447,13.7795124 8.52569868,13.4516018 8.05725397,12.7777616 C6.65191838,14.211923 5.65737599,14.6407293 3.83404114,14.6407293 C1.67919272,14.6407293 -1.77247599e-07,13.3110654 -1.77247599e-07,10.6481382 C-1.77247599e-07,8.56896109 1.12787119,7.15281548 2.73139412,6.46095853 C4.1223154,5.84837434 6.06456101,5.74027359 7.54917326,5.57091291 L7.54917326,5.23939793 C7.54917326,4.63041738 7.59601796,3.90973245 7.23927864,3.38363526 C6.92577864,2.91158485 6.32761242,2.71699992 5.80151101,2.71699992 C4.82498526,2.71699992 3.9529548,3.21787566 3.74035323,4.25566159 C3.69711118,4.48628228 3.52775041,4.71329793 3.29713245,4.72410811 L0.810770215,4.4574529 C0.6017712,4.41061093 0.371151805,4.24124752 0.428806656,3.92054536 C1.00175132,0.908083278 3.72233535,1.79702053e-05 6.15825174,1.79702053e-05 C7.40503411,1.79702053e-05 9.03378146,0.3315337 10.0175166,1.27563005 C11.2643022,2.43953584 11.1453874,3.99261159 11.1453874,5.68261879 L11.1453874,9.67521192 C11.1453874,10.875154 11.6426623,11.4012508 12.1111076,12.04987 C12.2768642,12.2804868 12.3128982,12.5579503 12.1038974,12.7309147 C11.5814015,13.1669313 10.6517194,13.9777012 10.1400306,14.4317318 L10.1328286,14.4245132" id="path30" fill="#000000"></path>
        </g>
    </g>
</svg>